<?xml version="1.0" encoding="UTF-8"?>
<svg id="Layer_1" data-name="Layer 1" xmlns="http://www.w3.org/2000/svg" viewBox="0 0 192.87 252.07">
  <defs>
    <style>
      .cls-1 {
        fill: #23b8cc;
      }
    </style>
  </defs>
  <path id="path44" class="cls-1" d="M123.08,0c-3.98.02-7.84,1.76-10.68,5.03L3.57,129.96c-3.75,4.31-4.62,10.22-2.25,15.45,2.35,5.21,7.41,8.46,13.14,8.46h101.33c3.52,0,6.43-2.85,6.43-6.37s-2.91-6.37-6.43-6.37H14.46c-.92,0-1.36-.55-1.57-1-.21-.45-.35-1.14.26-1.83L121.99,13.39c.24-.24.91-1.05,2.12-.38,1.19.66.92,1.67.82,1.98l-16.48,55.94c-1,3.39.96,6.95,4.35,7.92,3.36.97,6.87-.97,7.86-4.32l16.49-56.02c1.93-6.66-.87-13.37-6.97-16.68C127.91.58,125.47-.02,123.08,0h0ZM77.08,98.2c-3.52,0-6.43,2.85-6.43,6.37s2.91,6.37,6.43,6.37h101.34c.92,0,1.34.55,1.55,1,.21.45.35,1.14-.26,1.83l-108.84,124.91c-.24.24-.91,1.04-2.12.38-1.19-.66-.92-1.67-.82-1.98l16.48-55.94c1-3.39-.96-6.95-4.35-7.92-3.36-.97-6.87.97-7.86,4.32l-16.49,56.02c-1.93,6.66.87,13.37,6.97,16.68,6.08,3.33,13.24,2.03,17.79-3.2l108.84-124.93c3.75-4.31,4.62-10.22,2.25-15.45-2.35-5.21-7.39-8.46-13.12-8.46h-101.34Z"/>
</svg>